<mxfile host="app.diagrams.net" agent="Mozilla/5.0 (Windows NT 10.0; Win64; x64; rv:131.0) Gecko/20100101 Firefox/131.0" version="24.7.17">
  <diagram name="Page-1" id="1ekEdgk_DFMnW3b7v8rj">
    <mxGraphModel dx="1050" dy="558" grid="1" gridSize="10" guides="1" tooltips="1" connect="1" arrows="1" fold="1" page="1" pageScale="1" pageWidth="850" pageHeight="1100" math="0" shadow="0">
      <root>
        <mxCell id="0" />
        <mxCell id="1" parent="0" />
        <mxCell id="78ODWVTwOiqsvGkvTwOz-2" value="" style="whiteSpace=wrap;html=1;aspect=fixed;" vertex="1" parent="1">
          <mxGeometry x="140" y="190" width="170" height="170" as="geometry" />
        </mxCell>
        <mxCell id="78ODWVTwOiqsvGkvTwOz-3" value="&lt;font style=&quot;font-size: 14px;&quot;&gt;&lt;b&gt;docker build&lt;/b&gt;&lt;/font&gt;" style="rounded=0;whiteSpace=wrap;html=1;" vertex="1" parent="1">
          <mxGeometry x="165" y="200" width="115" height="30" as="geometry" />
        </mxCell>
        <mxCell id="78ODWVTwOiqsvGkvTwOz-35" style="edgeStyle=orthogonalEdgeStyle;rounded=0;orthogonalLoop=1;jettySize=auto;html=1;exitX=1;exitY=0.5;exitDx=0;exitDy=0;entryX=0;entryY=0.5;entryDx=0;entryDy=0;flowAnimation=1;" edge="1" parent="1" source="78ODWVTwOiqsvGkvTwOz-53" target="78ODWVTwOiqsvGkvTwOz-8">
          <mxGeometry relative="1" as="geometry" />
        </mxCell>
        <mxCell id="78ODWVTwOiqsvGkvTwOz-4" value="&lt;font style=&quot;font-size: 14px;&quot;&gt;&lt;b&gt;docker push&lt;/b&gt;&lt;/font&gt;" style="rounded=0;whiteSpace=wrap;html=1;" vertex="1" parent="1">
          <mxGeometry x="165" y="240" width="115" height="30" as="geometry" />
        </mxCell>
        <mxCell id="78ODWVTwOiqsvGkvTwOz-36" style="edgeStyle=orthogonalEdgeStyle;rounded=0;orthogonalLoop=1;jettySize=auto;html=1;exitX=1;exitY=0.5;exitDx=0;exitDy=0;entryX=0;entryY=0.5;entryDx=0;entryDy=0;flowAnimation=1;" edge="1" parent="1" source="78ODWVTwOiqsvGkvTwOz-51" target="78ODWVTwOiqsvGkvTwOz-8">
          <mxGeometry relative="1" as="geometry" />
        </mxCell>
        <mxCell id="78ODWVTwOiqsvGkvTwOz-5" value="&lt;font style=&quot;font-size: 14px;&quot;&gt;&lt;b&gt;docker pull&lt;/b&gt;&lt;/font&gt;" style="rounded=0;whiteSpace=wrap;html=1;" vertex="1" parent="1">
          <mxGeometry x="165" y="280" width="115" height="30" as="geometry" />
        </mxCell>
        <mxCell id="78ODWVTwOiqsvGkvTwOz-37" style="edgeStyle=orthogonalEdgeStyle;rounded=0;orthogonalLoop=1;jettySize=auto;html=1;exitX=1;exitY=0.5;exitDx=0;exitDy=0;entryX=0;entryY=0.5;entryDx=0;entryDy=0;flowAnimation=1;" edge="1" parent="1" source="78ODWVTwOiqsvGkvTwOz-6" target="78ODWVTwOiqsvGkvTwOz-8">
          <mxGeometry relative="1" as="geometry" />
        </mxCell>
        <mxCell id="78ODWVTwOiqsvGkvTwOz-6" value="&lt;font style=&quot;font-size: 14px;&quot;&gt;&lt;b&gt;docker run&lt;/b&gt;&lt;/font&gt;" style="rounded=0;whiteSpace=wrap;html=1;" vertex="1" parent="1">
          <mxGeometry x="165" y="320" width="115" height="30" as="geometry" />
        </mxCell>
        <mxCell id="78ODWVTwOiqsvGkvTwOz-7" value="" style="whiteSpace=wrap;html=1;aspect=fixed;" vertex="1" parent="1">
          <mxGeometry x="370" y="160" width="230" height="230" as="geometry" />
        </mxCell>
        <mxCell id="78ODWVTwOiqsvGkvTwOz-33" style="edgeStyle=orthogonalEdgeStyle;rounded=0;orthogonalLoop=1;jettySize=auto;html=1;exitX=0.5;exitY=0;exitDx=0;exitDy=0;entryX=0.5;entryY=1;entryDx=0;entryDy=0;flowAnimation=1;" edge="1" parent="1" source="78ODWVTwOiqsvGkvTwOz-8" target="78ODWVTwOiqsvGkvTwOz-14">
          <mxGeometry relative="1" as="geometry" />
        </mxCell>
        <mxCell id="78ODWVTwOiqsvGkvTwOz-39" style="edgeStyle=orthogonalEdgeStyle;rounded=0;orthogonalLoop=1;jettySize=auto;html=1;exitX=1;exitY=0.5;exitDx=0;exitDy=0;entryX=0;entryY=0.5;entryDx=0;entryDy=0;flowAnimation=1;" edge="1" parent="1" source="78ODWVTwOiqsvGkvTwOz-8" target="78ODWVTwOiqsvGkvTwOz-13">
          <mxGeometry relative="1" as="geometry" />
        </mxCell>
        <mxCell id="78ODWVTwOiqsvGkvTwOz-41" style="edgeStyle=orthogonalEdgeStyle;rounded=0;orthogonalLoop=1;jettySize=auto;html=1;exitX=0.25;exitY=1;exitDx=0;exitDy=0;entryX=0;entryY=0;entryDx=0;entryDy=0;flowAnimation=1;" edge="1" parent="1" source="78ODWVTwOiqsvGkvTwOz-8" target="78ODWVTwOiqsvGkvTwOz-12">
          <mxGeometry relative="1" as="geometry" />
        </mxCell>
        <mxCell id="78ODWVTwOiqsvGkvTwOz-42" style="edgeStyle=orthogonalEdgeStyle;rounded=0;orthogonalLoop=1;jettySize=auto;html=1;exitX=0.5;exitY=1;exitDx=0;exitDy=0;flowAnimation=1;" edge="1" parent="1" source="78ODWVTwOiqsvGkvTwOz-8">
          <mxGeometry relative="1" as="geometry">
            <mxPoint x="490" y="280" as="targetPoint" />
          </mxGeometry>
        </mxCell>
        <mxCell id="78ODWVTwOiqsvGkvTwOz-8" value="&lt;div&gt;&lt;b&gt;&lt;font style=&quot;font-size: 14px;&quot;&gt;Docker Daemon&lt;/font&gt;&lt;/b&gt;&lt;/div&gt;&lt;div&gt;&lt;b&gt;&lt;font size=&quot;3&quot;&gt;(Dockerd)&lt;/font&gt;&lt;/b&gt;&lt;br&gt;&lt;/div&gt;" style="rounded=1;whiteSpace=wrap;html=1;" vertex="1" parent="1">
          <mxGeometry x="425" y="170" width="115" height="50" as="geometry" />
        </mxCell>
        <mxCell id="78ODWVTwOiqsvGkvTwOz-11" value="" style="whiteSpace=wrap;html=1;aspect=fixed;" vertex="1" parent="1">
          <mxGeometry x="385" y="280" width="80" height="80" as="geometry" />
        </mxCell>
        <mxCell id="78ODWVTwOiqsvGkvTwOz-43" style="edgeStyle=orthogonalEdgeStyle;rounded=0;orthogonalLoop=1;jettySize=auto;html=1;exitX=0.5;exitY=1;exitDx=0;exitDy=0;entryX=0.5;entryY=1;entryDx=0;entryDy=0;flowAnimation=1;" edge="1" parent="1" source="78ODWVTwOiqsvGkvTwOz-12" target="78ODWVTwOiqsvGkvTwOz-11">
          <mxGeometry relative="1" as="geometry" />
        </mxCell>
        <mxCell id="78ODWVTwOiqsvGkvTwOz-12" value="" style="whiteSpace=wrap;html=1;aspect=fixed;" vertex="1" parent="1">
          <mxGeometry x="490" y="280" width="80" height="80" as="geometry" />
        </mxCell>
        <mxCell id="78ODWVTwOiqsvGkvTwOz-40" style="edgeStyle=orthogonalEdgeStyle;rounded=0;orthogonalLoop=1;jettySize=auto;html=1;exitX=0.5;exitY=1;exitDx=0;exitDy=0;entryX=1;entryY=0.5;entryDx=0;entryDy=0;flowAnimation=1;" edge="1" parent="1" source="78ODWVTwOiqsvGkvTwOz-13" target="78ODWVTwOiqsvGkvTwOz-12">
          <mxGeometry relative="1" as="geometry" />
        </mxCell>
        <mxCell id="78ODWVTwOiqsvGkvTwOz-13" value="" style="whiteSpace=wrap;html=1;aspect=fixed;" vertex="1" parent="1">
          <mxGeometry x="660" y="175" width="90" height="90" as="geometry" />
        </mxCell>
        <mxCell id="78ODWVTwOiqsvGkvTwOz-14" value="&lt;font style=&quot;font-size: 14px;&quot;&gt;&lt;b&gt;Dockerfile&lt;/b&gt;&lt;/font&gt;" style="rounded=1;whiteSpace=wrap;html=1;" vertex="1" parent="1">
          <mxGeometry x="420" y="60" width="120" height="60" as="geometry" />
        </mxCell>
        <mxCell id="78ODWVTwOiqsvGkvTwOz-15" value="" style="verticalLabelPosition=bottom;html=1;verticalAlign=top;align=center;strokeColor=none;fillColor=#00BEF2;shape=mxgraph.azure.git_repository;" vertex="1" parent="1">
          <mxGeometry x="455" y="10" width="50" height="50" as="geometry" />
        </mxCell>
        <mxCell id="78ODWVTwOiqsvGkvTwOz-16" value="&lt;font style=&quot;font-size: 14px;&quot;&gt;&lt;b&gt;Containers&lt;/b&gt;&lt;/font&gt;" style="text;strokeColor=none;align=center;fillColor=none;html=1;verticalAlign=middle;whiteSpace=wrap;rounded=0;" vertex="1" parent="1">
          <mxGeometry x="395" y="250" width="60" height="30" as="geometry" />
        </mxCell>
        <mxCell id="78ODWVTwOiqsvGkvTwOz-17" value="&lt;font style=&quot;font-size: 14px;&quot;&gt;&lt;b&gt;Images&lt;/b&gt;&lt;/font&gt;" style="text;strokeColor=none;align=center;fillColor=none;html=1;verticalAlign=middle;whiteSpace=wrap;rounded=0;" vertex="1" parent="1">
          <mxGeometry x="500" y="250" width="60" height="30" as="geometry" />
        </mxCell>
        <mxCell id="78ODWVTwOiqsvGkvTwOz-19" value="&lt;font style=&quot;font-size: 14px;&quot;&gt;Registry&lt;/font&gt;" style="text;html=1;align=center;verticalAlign=middle;resizable=0;points=[];autosize=1;strokeColor=none;fillColor=none;" vertex="1" parent="1">
          <mxGeometry x="670" y="140" width="70" height="30" as="geometry" />
        </mxCell>
        <mxCell id="78ODWVTwOiqsvGkvTwOz-20" value="" style="shape=image;html=1;verticalAlign=top;verticalLabelPosition=bottom;labelBackgroundColor=#ffffff;imageAspect=0;aspect=fixed;image=https://cdn1.iconfinder.com/data/icons/ionicons-fill-vol-2/512/logo-docker-128.png" vertex="1" parent="1">
          <mxGeometry x="385" y="280" width="40" height="40" as="geometry" />
        </mxCell>
        <mxCell id="78ODWVTwOiqsvGkvTwOz-21" value="" style="shape=image;html=1;verticalAlign=top;verticalLabelPosition=bottom;labelBackgroundColor=#ffffff;imageAspect=0;aspect=fixed;image=https://cdn1.iconfinder.com/data/icons/ionicons-fill-vol-2/512/logo-docker-128.png" vertex="1" parent="1">
          <mxGeometry x="425" y="280" width="40" height="40" as="geometry" />
        </mxCell>
        <mxCell id="78ODWVTwOiqsvGkvTwOz-22" value="" style="shape=image;html=1;verticalAlign=top;verticalLabelPosition=bottom;labelBackgroundColor=#ffffff;imageAspect=0;aspect=fixed;image=https://cdn1.iconfinder.com/data/icons/ionicons-fill-vol-2/512/logo-docker-128.png" vertex="1" parent="1">
          <mxGeometry x="400" y="320" width="40" height="40" as="geometry" />
        </mxCell>
        <mxCell id="78ODWVTwOiqsvGkvTwOz-23" value="" style="shape=image;html=1;verticalAlign=top;verticalLabelPosition=bottom;labelBackgroundColor=#ffffff;imageAspect=0;aspect=fixed;image=https://cdn1.iconfinder.com/data/icons/operating-system-flat-1/30/ubuntu-128.png" vertex="1" parent="1">
          <mxGeometry x="497.4" y="290" width="40" height="40" as="geometry" />
        </mxCell>
        <mxCell id="78ODWVTwOiqsvGkvTwOz-25" value="" style="dashed=0;outlineConnect=0;html=1;align=center;labelPosition=center;verticalLabelPosition=bottom;verticalAlign=top;shape=mxgraph.weblogos.apache" vertex="1" parent="1">
          <mxGeometry x="670" y="185" width="32.6" height="60" as="geometry" />
        </mxCell>
        <mxCell id="78ODWVTwOiqsvGkvTwOz-26" value="" style="dashed=0;outlineConnect=0;html=1;align=center;labelPosition=center;verticalLabelPosition=bottom;verticalAlign=top;shape=mxgraph.weblogos.apache" vertex="1" parent="1">
          <mxGeometry x="537.4" y="300" width="32.6" height="60" as="geometry" />
        </mxCell>
        <mxCell id="78ODWVTwOiqsvGkvTwOz-27" value="" style="shape=image;html=1;verticalAlign=top;verticalLabelPosition=bottom;labelBackgroundColor=#ffffff;imageAspect=0;aspect=fixed;image=https://cdn1.iconfinder.com/data/icons/operating-system-flat-1/30/ubuntu-128.png" vertex="1" parent="1">
          <mxGeometry x="700" y="210" width="40" height="40" as="geometry" />
        </mxCell>
        <mxCell id="78ODWVTwOiqsvGkvTwOz-30" style="edgeStyle=orthogonalEdgeStyle;rounded=0;orthogonalLoop=1;jettySize=auto;html=1;exitX=1;exitY=0.5;exitDx=0;exitDy=0;entryX=0;entryY=0.5;entryDx=0;entryDy=0;flowAnimation=1;" edge="1" parent="1" source="78ODWVTwOiqsvGkvTwOz-3" target="78ODWVTwOiqsvGkvTwOz-8">
          <mxGeometry relative="1" as="geometry" />
        </mxCell>
        <mxCell id="78ODWVTwOiqsvGkvTwOz-32" value="" style="shape=image;html=1;verticalAlign=top;verticalLabelPosition=bottom;labelBackgroundColor=#ffffff;imageAspect=0;aspect=fixed;image=https://cdn0.iconfinder.com/data/icons/phosphor-fill-vol-3/256/number-circle-one-fill-128.png" vertex="1" parent="1">
          <mxGeometry x="320" y="185" width="30" height="30" as="geometry" />
        </mxCell>
        <mxCell id="78ODWVTwOiqsvGkvTwOz-34" value="2" style="ellipse;whiteSpace=wrap;html=1;aspect=fixed;rotation=0;gradientColor=#223548;strokeColor=none;gradientDirection=east;fillColor=#5b738b;rounded=0;pointerEvents=0;fontFamily=Helvetica;fontSize=16;fontColor=#FFFFFF;spacingTop=4;spacingBottom=4;spacingLeft=4;spacingRight=4;points=[];fontStyle=1" vertex="1" parent="1">
          <mxGeometry x="490" y="130" width="20" height="20" as="geometry" />
        </mxCell>
        <mxCell id="78ODWVTwOiqsvGkvTwOz-44" value="" style="shape=image;html=1;verticalAlign=top;verticalLabelPosition=bottom;labelBackgroundColor=#ffffff;imageAspect=0;aspect=fixed;image=https://cdn1.iconfinder.com/data/icons/ionicons-fill-vol-2/512/logo-docker-128.png" vertex="1" parent="1">
          <mxGeometry x="740" y="130" width="40" height="40" as="geometry" />
        </mxCell>
        <mxCell id="78ODWVTwOiqsvGkvTwOz-46" value="3" style="ellipse;whiteSpace=wrap;html=1;aspect=fixed;rotation=0;gradientColor=#223548;strokeColor=none;gradientDirection=east;fillColor=#5b738b;rounded=0;pointerEvents=0;fontFamily=Helvetica;fontSize=16;fontColor=#FFFFFF;spacingTop=4;spacingBottom=4;spacingLeft=4;spacingRight=4;points=[];fontStyle=1" vertex="1" parent="1">
          <mxGeometry x="485" y="230" width="20" height="20" as="geometry" />
        </mxCell>
        <mxCell id="78ODWVTwOiqsvGkvTwOz-48" value="5" style="ellipse;whiteSpace=wrap;html=1;aspect=fixed;rotation=0;gradientColor=#223548;strokeColor=none;gradientDirection=east;fillColor=#5b738b;rounded=0;pointerEvents=0;fontFamily=Helvetica;fontSize=16;fontColor=#FFFFFF;spacingTop=4;spacingBottom=4;spacingLeft=4;spacingRight=4;points=[];fontStyle=1" vertex="1" parent="1">
          <mxGeometry x="610" y="190" width="20" height="20" as="geometry" />
        </mxCell>
        <mxCell id="78ODWVTwOiqsvGkvTwOz-50" style="edgeStyle=orthogonalEdgeStyle;rounded=0;orthogonalLoop=1;jettySize=auto;html=1;exitX=1;exitY=0.5;exitDx=0;exitDy=0;entryX=-0.022;entryY=0.833;entryDx=0;entryDy=0;entryPerimeter=0;flowAnimation=1;" edge="1" parent="1" source="78ODWVTwOiqsvGkvTwOz-8" target="78ODWVTwOiqsvGkvTwOz-13">
          <mxGeometry relative="1" as="geometry" />
        </mxCell>
        <mxCell id="78ODWVTwOiqsvGkvTwOz-52" value="7" style="ellipse;whiteSpace=wrap;html=1;aspect=fixed;rotation=0;gradientColor=#223548;strokeColor=none;gradientDirection=east;fillColor=#5b738b;rounded=0;pointerEvents=0;fontFamily=Helvetica;fontSize=16;fontColor=#FFFFFF;spacingTop=4;spacingBottom=4;spacingLeft=4;spacingRight=4;points=[];fontStyle=1" vertex="1" parent="1">
          <mxGeometry x="610" y="225" width="20" height="20" as="geometry" />
        </mxCell>
        <mxCell id="78ODWVTwOiqsvGkvTwOz-54" value="8" style="ellipse;whiteSpace=wrap;html=1;aspect=fixed;rotation=0;gradientColor=#223548;strokeColor=none;gradientDirection=east;fillColor=#5b738b;rounded=0;pointerEvents=0;fontFamily=Helvetica;fontSize=16;fontColor=#FFFFFF;spacingTop=4;spacingBottom=4;spacingLeft=4;spacingRight=4;points=[];fontStyle=1" vertex="1" parent="1">
          <mxGeometry x="630" y="300" width="20" height="20" as="geometry" />
        </mxCell>
        <mxCell id="78ODWVTwOiqsvGkvTwOz-55" value="9" style="ellipse;whiteSpace=wrap;html=1;aspect=fixed;rotation=0;gradientColor=#223548;strokeColor=none;gradientDirection=east;fillColor=#5b738b;rounded=0;pointerEvents=0;fontFamily=Helvetica;fontSize=16;fontColor=#FFFFFF;spacingTop=4;spacingBottom=4;spacingLeft=4;spacingRight=4;points=[];fontStyle=1" vertex="1" parent="1">
          <mxGeometry x="325" y="310" width="20" height="20" as="geometry" />
        </mxCell>
        <mxCell id="78ODWVTwOiqsvGkvTwOz-56" value="" style="edgeStyle=orthogonalEdgeStyle;rounded=0;orthogonalLoop=1;jettySize=auto;html=1;exitX=1;exitY=0.5;exitDx=0;exitDy=0;entryX=0;entryY=0.5;entryDx=0;entryDy=0;flowAnimation=1;" edge="1" parent="1" source="78ODWVTwOiqsvGkvTwOz-5" target="78ODWVTwOiqsvGkvTwOz-51">
          <mxGeometry relative="1" as="geometry">
            <mxPoint x="280" y="295" as="sourcePoint" />
            <mxPoint x="425" y="195" as="targetPoint" />
          </mxGeometry>
        </mxCell>
        <mxCell id="78ODWVTwOiqsvGkvTwOz-51" value="6" style="ellipse;whiteSpace=wrap;html=1;aspect=fixed;rotation=0;gradientColor=#223548;strokeColor=none;gradientDirection=east;fillColor=#5b738b;rounded=0;pointerEvents=0;fontFamily=Helvetica;fontSize=16;fontColor=#FFFFFF;spacingTop=4;spacingBottom=4;spacingLeft=4;spacingRight=4;points=[];fontStyle=1" vertex="1" parent="1">
          <mxGeometry x="325" y="270" width="20" height="20" as="geometry" />
        </mxCell>
        <mxCell id="78ODWVTwOiqsvGkvTwOz-57" value="" style="edgeStyle=orthogonalEdgeStyle;rounded=0;orthogonalLoop=1;jettySize=auto;html=1;exitX=1;exitY=0.5;exitDx=0;exitDy=0;entryX=0;entryY=0.5;entryDx=0;entryDy=0;flowAnimation=1;" edge="1" parent="1" source="78ODWVTwOiqsvGkvTwOz-4" target="78ODWVTwOiqsvGkvTwOz-53">
          <mxGeometry relative="1" as="geometry">
            <mxPoint x="280" y="255" as="sourcePoint" />
            <mxPoint x="425" y="195" as="targetPoint" />
          </mxGeometry>
        </mxCell>
        <mxCell id="78ODWVTwOiqsvGkvTwOz-53" value="4" style="ellipse;whiteSpace=wrap;html=1;aspect=fixed;rotation=0;gradientColor=#223548;strokeColor=none;gradientDirection=east;fillColor=#5b738b;rounded=0;pointerEvents=0;fontFamily=Helvetica;fontSize=16;fontColor=#FFFFFF;spacingTop=4;spacingBottom=4;spacingLeft=4;spacingRight=4;points=[];fontStyle=1" vertex="1" parent="1">
          <mxGeometry x="325" y="230" width="20" height="20" as="geometry" />
        </mxCell>
        <mxCell id="78ODWVTwOiqsvGkvTwOz-58" value="10" style="ellipse;whiteSpace=wrap;html=1;aspect=fixed;rotation=0;gradientColor=#223548;strokeColor=none;gradientDirection=east;fillColor=#5b738b;rounded=0;pointerEvents=0;fontFamily=Helvetica;fontSize=16;fontColor=#FFFFFF;spacingTop=4;spacingBottom=4;spacingLeft=4;spacingRight=4;points=[];fontStyle=1" vertex="1" parent="1">
          <mxGeometry x="470" y="360" width="20" height="20" as="geometry" />
        </mxCell>
        <mxCell id="78ODWVTwOiqsvGkvTwOz-59" value="&lt;font style=&quot;font-size: 14px;&quot;&gt;&lt;b&gt;Docker Architecture&lt;/b&gt;&lt;/font&gt;" style="rounded=1;whiteSpace=wrap;html=1;" vertex="1" parent="1">
          <mxGeometry x="180" y="70" width="120" height="60" as="geometry" />
        </mxCell>
        <mxCell id="78ODWVTwOiqsvGkvTwOz-60" value="" style="dashed=0;outlineConnect=0;html=1;align=center;labelPosition=center;verticalLabelPosition=bottom;verticalAlign=top;shape=mxgraph.webicons.linkedin;fillColor=#0095DB;gradientColor=#006391" vertex="1" parent="1">
          <mxGeometry x="207.5" y="140" width="30" height="30" as="geometry" />
        </mxCell>
        <mxCell id="78ODWVTwOiqsvGkvTwOz-61" value="&lt;font style=&quot;font-size: 14px;&quot; face=&quot;Georgia&quot;&gt;&lt;b&gt;&lt;i&gt;Sanjay Thanneeru&lt;/i&gt;&lt;/b&gt;&lt;/font&gt;" style="text;html=1;align=center;verticalAlign=middle;resizable=0;points=[];autosize=1;strokeColor=none;fillColor=none;glass=1;rounded=1;shadow=1;" vertex="1" parent="1">
          <mxGeometry x="235" y="135" width="160" height="30" as="geometry" />
        </mxCell>
      </root>
    </mxGraphModel>
  </diagram>
</mxfile>
